# xmcd
#
# Track frame offsets:
#	150
#	12727
#	27420
#	39945
#	55032
#	68782
#	79895
#	93777
#	103452
#	113782
#
# Disc length: 1704 seconds
#
# Revision: 1
# Processed by: cddbd v1.5.1PL2 Copyright (c) Steve Scherf et al.
# Submitted via: audiograbber 1.83.01
#
DISCID=7e06a60a
DTITLE=Don Gibson - Sings Hank Williams
DYEAR=1900
DGENRE=Country
TTITLE0=Cold Cold Heart
TTITLE1=I Can't Stop Loving You
TTITLE2=Kaw Liga
TTITLE3=I Heart That Lonesome Whistle
TTITLE4=Mansion On The Hill
TTITLE5=Move It On Over
TTITLE6=On The Banks Of The Old Ponchatrain
TTITLE7=Take These Chains From My Heart
TTITLE8=Window Shopping
TTITLE9=You Win Again
EXTD=
EXTT0=
EXTT1=
EXTT2=
EXTT3=
EXTT4=
EXTT5=
EXTT6=
EXTT7=
EXTT8=
EXTT9=
PLAYORDER=
